Coordinates
version=1
nRows=24
nColumns=24
inDegrees=yes

Units are S.I. units (second, meters, Newtons, ...)
Angles are in degrees.

endheader
time	pelvis_tilt	pelvis_list	pelvis_rotation	pelvis_tx	pelvis_ty	pelvis_tz	hip_flexion_r	hip_adduction_r	hip_rotation_r	knee_angle_r	ankle_angle_r	subtalar_angle_r	mtp_angle_r	hip_flexion_l	hip_adduction_l	hip_rotation_l	knee_angle_l	ankle_angle_l	subtalar_angle_l	mtp_angle_l	lumbar_extension	lumbar_bending	lumbar_rotation
      1.46633333	      0.36656018	      5.34041868	     -2.85914559	      0.31648146	      1.02427259	      0.30283945	     19.33744654	     -8.56803789	     -5.69796242	    -72.10360363	     -2.82353231	     -5.89182450	      2.11955629	      9.11555745	      9.65644356	      1.95129415	    -13.56770372	      5.33797022	    -10.01415092	     -0.40633765	     -3.44461094	     -6.71663233	      4.38398649
      1.47050000	      0.37516582	      5.21457826	     -2.79532369	      0.32119514	      1.02509095	      0.30243674	     19.90744110	     -8.41560031	     -5.74975143	    -71.83682527	     -2.37578241	     -5.75691319	      2.14152260	      8.63753385	      9.56176804	      2.06879540	    -13.24301981	      5.41639670	     -9.97080169	     -0.40937132	     -3.53468964	     -6.55290914	      4.22999317
      1.47466667	      0.40957009	      5.08416531	     -2.72384159	      0.32591422	      1.02594115	      0.30201701	     20.42700819	     -8.26266622	     -5.81424710	    -71.50425656	     -1.96732215	     -5.63730926	      2.16678151	      8.12579841	      9.46441988	      2.19652283	    -12.90762701	      5.49142819	     -9.93151435	     -0.41536102	     -3.65390583	     -6.38630751	      4.05298100
      1.47883333	      0.44339000	      4.95251130	     -2.63835740	      0.33060107	      1.02674748	      0.30158755	     20.93367829	     -8.10982670	     -5.89272782	    -71.12486265	     -1.56409470	     -5.55629367	      2.19376750	      7.62206980	      9.36420858	      2.32823287	    -12.58326727	      5.56259894	     -9.88954815	     -0.42334384	     -3.78235647	     -6.21526239	      3.88337421
      1.48300000	      0.46362913	      4.81702472	     -2.53991801	      0.33528252	      1.02750347	      0.30114482	     21.43732932	     -7.95498491	     -5.98412282	    -70.69173845	     -1.18510039	     -5.49463508	      2.22055876	      7.13588191	      9.25835538	      2.46728180	    -12.26534636	      5.63694799	     -9.84562919	     -0.43231409	     -3.89357262	     -6.03560900	      3.71454642
      1.48716667	      0.46853856	      4.68935451	     -2.43557562	      0.33996422	      1.02819484	      0.30070527	     21.94285008	     -7.80660804	     -6.07860048	    -70.20828249	     -0.81570567	     -5.51092655	      2.23758025	      6.67285580	      9.15539015	      2.57638072	    -11.95572043	      5.70379146	     -9.77958100	     -0.43607804	     -3.96025723	     -5.86918022	      3.61754679
      1.49133333	      0.53172427	      4.55155009	     -2.32161832	      0.34461239	      1.02895147	      0.30023045	     22.36434385	     -7.65885160	     -6.18555673	    -69.66608612	     -0.46643512	     -5.43334154	      2.26683950	      6.13899598	      9.04875781	      2.75003894	    -11.63025541	      5.78742487	     -9.73631029	     -0.44797137	     -4.15202911	     -5.68651074	      3.35625927
      1.49550000	      0.53963370	      4.42610425	     -2.19408345	      0.34925606	      1.02958194	      0.29976758	     22.83291582	     -7.51928416	     -6.29685800	    -69.08011355	     -0.11903562	     -5.45183807	      2.28844178	      5.68187825	      8.94654655	      2.89316288	    -11.33440805	      5.85133867	     -9.68144854	     -0.45657893	     -4.25816391	     -5.52738458	      3.20767481
      1.49966667	      0.56560354	      4.29925595	     -2.06447778	      0.35393294	      1.03019813	      0.29928314	     23.25986453	     -7.38688723	     -6.42282230	    -68.43836619	      0.21565239	     -5.49796502	      2.30458453	      5.19978026	      8.84260874	      3.02239924	    -11.02910941	      5.92944292	     -9.61383291	     -0.46161739	     -4.34117662	     -5.34235656	      3.07353427
      1.50383333	      0.61522319	      4.18872732	     -1.93432335	      0.35856057	      1.03081348	      0.29881755	     23.65074597	     -7.26720616	     -6.52971863	    -67.74808306	      0.50432337	     -5.51182930	      2.33015575	      4.69006023	      8.75670527	      3.20394972	    -10.71111593	      6.00754601	     -9.57477424	     -0.47685683	     -4.51599240	     -5.20670620	      2.77437674
      1.50800000	      0.61664079	      4.07861791	     -1.79498597	      0.36321817	      1.03131739	      0.29834480	     24.07431865	     -7.14868620	     -6.64924748	    -67.01106817	      0.82763260	     -5.60799421	      2.34248877	      4.24697700	      8.66299267	      3.32855277	    -10.42175525	      6.07411705	     -9.49596609	     -0.48134882	     -4.57059664	     -5.04623662	      2.67836663
      1.51216667	      0.63656717	      3.94875466	     -1.63873985	      0.36783938	      1.03181738	      0.29786676	     24.45074960	     -7.00940871	     -6.78086009	    -66.20571941	      1.09656584	     -5.68981803	      2.35685889	      3.79269301	      8.54869550	      3.50589569	    -10.15400506	      6.16719736	     -9.44172903	     -0.49037399	     -4.71105434	     -4.89342154	      2.45337211
      1.51633333	      0.68397724	      3.84164535	     -1.49055475	      0.37248575	      1.03232614	      0.29740330	     24.78135688	     -6.89598489	     -6.90585858	    -65.35442178	      1.36436298	     -5.80669103	      2.36888048	      3.30054217	      8.45551091	      3.66237153	     -9.86292318	      6.24577190	     -9.37813870	     -0.49970406	     -4.84965758	     -4.74890325	      2.24442464
      1.52050000	      0.70811249	      3.74675691	     -1.34358663	      0.37714178	      1.03274215	      0.29694000	     25.12385259	     -6.79197322	     -7.01872417	    -64.45902559	      1.59871068	     -5.96451146	      2.38212737	      2.83397310	      8.37338608	      3.82662960	     -9.57092208	      6.31816957	     -9.32756595	     -0.51916976	     -4.96058994	     -4.61553177	      1.94991052
      1.52466667	      0.68800950	      3.67206180	     -1.19696887	      0.38181630	      1.03304264	      0.29648327	     25.50201309	     -6.70827531	     -7.12263382	    -63.52973951	      1.87650977	     -6.09605102	      2.38695719	      2.42707666	      8.30856586	      3.96386859	     -9.30162396	      6.40572055	     -9.24321589	     -0.52236986	     -4.98448864	     -4.49156704	      1.86795933
      1.52883333	      0.72359177	      3.55156605	     -1.02659872	      0.38646140	      1.03343587	      0.29602785	     25.77421679	     -6.57643881	     -7.25830263	    -62.50133882	      2.05468086	     -6.28962503	      2.38585942	      1.97139002	      8.19231576	      4.13723642	     -9.06205752	      6.51223941	     -9.18896832	     -0.53179233	     -5.12957697	     -4.34764696	      1.63614039
      1.53300000	      0.73106616	      3.47896842	     -0.88081027	      0.39114395	      1.03370002	      0.29560710	     26.07740604	     -6.48565204	     -7.34971049	    -61.45552355	      2.23241326	     -6.50307754	      2.37903068	      1.53484761	      8.12429357	      4.29327111	     -8.79304631	      6.60459386	     -9.12895410	     -0.54545756	     -5.20709760	     -4.24447194	      1.38335333
      1.53716667	      0.72050233	      3.39623038	     -0.72021758	      0.39583072	      1.03392503	      0.29518041	     26.37098958	     -6.38593479	     -7.45485294	    -60.34768667	      2.40875026	     -6.72241800	      2.36652363	      1.12969505	      8.04269666	      4.45236201	     -8.55060292	      6.70242986	     -9.06455471	     -0.55785597	     -5.26338374	     -4.13346336	      1.18671187
      1.54133333	      0.70872892	      3.32255456	     -0.55580203	      0.40051397	      1.03409387	      0.29476950	     26.64638120	     -6.29409343	     -7.55684815	    -59.19494191	      2.59892301	     -6.94326416	      2.35249954	      0.73689924	      7.96717943	      4.60356397	     -8.33089408	      6.80077524	     -8.99655812	     -0.56584365	     -5.32586282	     -4.03036845	      1.03533963
      1.54550000	      0.71438634	      3.26163173	     -0.40746814	      0.40523133	      1.03426272	      0.29438610	     26.88258955	     -6.20695001	     -7.63677497	    -57.98535134	      2.70652568	     -7.21261466	      2.32327091	      0.31018323	      7.90392404	      4.75692712	     -8.07937947	      6.90486332	     -8.93460783	     -0.57873964	     -5.39304315	     -3.94496141	      0.80752009
      1.54966667	      0.69026267	      3.20068222	     -0.24193841	      0.40993013	      1.03433164	      0.29400057	     27.12903536	     -6.12121948	     -7.72371779	    -56.73318352	      2.86558802	     -7.45723698	      2.29747527	     -0.06164009	      7.83806406	      4.91234329	     -7.87576150	      7.00904364	     -8.87083641	     -0.58684380	     -5.43910942	     -3.85892636	      0.65686276
      1.55383333	      0.66132893	      3.14012616	     -0.08437136	      0.41466512	      1.03436484	      0.29364902	     27.35548223	     -6.02684006	     -7.79649662	    -55.42188599	      2.96783450	     -7.73274866	      2.26327973	     -0.43456979	      7.76900944	      5.06808208	     -7.66203386	      7.12056338	     -8.80969537	     -0.59506167	     -5.46486777	     -3.77459151	      0.47931857
      1.55800000	      0.65460303	      3.10870178	      0.05875942	      0.41941365	      1.03437994	      0.29333300	     27.54396027	     -5.95778531	     -7.85015802	    -54.07041753	      3.00615978	     -8.04547559	      2.20214655	     -0.84085032	      7.72917119	      5.21407464	     -7.42642834	      7.22969902	     -8.76260792	     -0.61082368	     -5.51744394	     -3.73952994	      0.24035117
      1.56216667	      0.59538217	      3.06958074	      0.22204059	      0.42416711	      1.03427025	      0.29299691	     27.76440866	     -5.88677840	     -7.91841605	    -52.67728664	      3.12452001	     -8.29672335	      2.15832902	     -1.17250940	      7.67991014	      5.37154216	     -7.23184070	      7.34656220	     -8.70654982	     -0.61950217	     -5.51858150	     -3.67469177	      0.10523875
